<?xml version="1.0" encoding="UTF-8"?>
<svg width="1440" height="800" viewBox="0 0 1440 800" fill="none" xmlns="http://www.w3.org/2000/svg">
  <g opacity="0.5">
    <path d="M1440 0H0V800H1440V0Z" fill="url(#paint0_linear)"/>
    <g opacity="0.4">
      <path d="M1086.15 389.485C1108.15 389.485 1126.15 371.485 1126.15 349.485C1126.15 327.485 1108.15 309.485 1086.15 309.485C1064.15 309.485 1046.15 327.485 1046.15 349.485C1046.15 371.485 1064.15 389.485 1086.15 389.485Z" stroke="white" stroke-width="2"/>
      <path d="M1086.15 429.485C1130.15 429.485 1166.15 393.485 1166.15 349.485C1166.15 305.485 1130.15 269.485 1086.15 269.485C1042.15 269.485 1006.15 305.485 1006.15 349.485C1006.15 393.485 1042.15 429.485 1086.15 429.485Z" stroke="white" stroke-width="2"/>
      <path d="M1086.15 469.485C1152.15 469.485 1206.15 415.485 1206.15 349.485C1206.15 283.485 1152.15 229.485 1086.15 229.485C1020.15 229.485 966.15 283.485 966.15 349.485C966.15 415.485 1020.15 469.485 1086.15 469.485Z" stroke="white" stroke-width="2"/>
      <path d="M1086.15 509.485C1174.15 509.485 1246.15 437.485 1246.15 349.485C1246.15 261.485 1174.15 189.485 1086.15 189.485C998.15 189.485 926.15 261.485 926.15 349.485C926.15 437.485 998.15 509.485 1086.15 509.485Z" stroke="white" stroke-width="2"/>
    </g>
    <g opacity="0.4">
      <path d="M353.15 389.485C375.15 389.485 393.15 371.485 393.15 349.485C393.15 327.485 375.15 309.485 353.15 309.485C331.15 309.485 313.15 327.485 313.15 349.485C313.15 371.485 331.15 389.485 353.15 389.485Z" stroke="white" stroke-width="2"/>
      <path d="M353.15 429.485C397.15 429.485 433.15 393.485 433.15 349.485C433.15 305.485 397.15 269.485 353.15 269.485C309.15 269.485 273.15 305.485 273.15 349.485C273.15 393.485 309.15 429.485 353.15 429.485Z" stroke="white" stroke-width="2"/>
      <path d="M353.15 469.485C419.15 469.485 473.15 415.485 473.15 349.485C473.15 283.485 419.15 229.485 353.15 229.485C287.15 229.485 233.15 283.485 233.15 349.485C233.15 415.485 287.15 469.485 353.15 469.485Z" stroke="white" stroke-width="2"/>
      <path d="M353.15 509.485C441.15 509.485 513.15 437.485 513.15 349.485C513.15 261.485 441.15 189.485 353.15 189.485C265.15 189.485 193.15 261.485 193.15 349.485C193.15 437.485 265.15 509.485 353.15 509.485Z" stroke="white" stroke-width="2"/>
    </g>
    <path opacity="0.4" d="M1374.15 169.485L1394.15 189.485L1414.15 169.485L1394.15 149.485L1374.15 169.485Z" stroke="white" stroke-width="2"/>
    <path opacity="0.4" d="M1334.15 169.485L1394.15 229.485L1454.15 169.485L1394.15 109.485L1334.15 169.485Z" stroke="white" stroke-width="2"/>
    <path opacity="0.4" d="M1294.15 169.485L1394.15 269.485L1494.15 169.485L1394.15 69.485L1294.15 169.485Z" stroke="white" stroke-width="2"/>
    <path opacity="0.4" d="M1254.15 169.485L1394.15 309.485L1534.15 169.485L1394.15 29.485L1254.15 169.485Z" stroke="white" stroke-width="2"/>
    <path opacity="0.4" d="M1214.15 169.485L1394.15 349.485L1574.15 169.485L1394.15 -10.515L1214.15 169.485Z" stroke="white" stroke-width="2"/>
    <path opacity="0.4" d="M1174.15 169.485L1394.15 389.485L1614.15 169.485L1394.15 -50.515L1174.15 169.485Z" stroke="white" stroke-width="2"/>
    <path opacity="0.4" d="M1134.15 169.485L1394.15 429.485L1654.15 169.485L1394.15 -90.515L1134.15 169.485Z" stroke="white" stroke-width="2"/>
    <path opacity="0.4" d="M1094.15 169.485L1394.15 469.485L1694.15 169.485L1394.15 -130.515L1094.15 169.485Z" stroke="white" stroke-width="2"/>
    <path opacity="0.4" d="M1054.15 169.485L1394.15 509.485L1734.15 169.485L1394.15 -170.515L1054.15 169.485Z" stroke="white" stroke-width="2"/>
    <path opacity="0.4" d="M1014.15 169.485L1394.15 549.485L1774.15 169.485L1394.15 -210.515L1014.15 169.485Z" stroke="white" stroke-width="2"/>
    <path opacity="0.4" d="M974.15 169.485L1394.15 589.485L1814.15 169.485L1394.15 -250.515L974.15 169.485Z" stroke="white" stroke-width="2"/>
    <path opacity="0.4" d="M934.15 169.485L1394.15 629.485L1854.15 169.485L1394.15 -290.515L934.15 169.485Z" stroke="white" stroke-width="2"/>
    <path opacity="0.4" d="M894.15 169.485L1394.15 669.485L1894.15 169.485L1394.15 -330.515L894.15 169.485Z" stroke="white" stroke-width="2"/>
    <path opacity="0.4" d="M854.15 169.485L1394.15 709.485L1934.15 169.485L1394.15 -370.515L854.15 169.485Z" stroke="white" stroke-width="2"/>
    <path opacity="0.4" d="M814.15 169.485L1394.15 749.485L1974.15 169.485L1394.15 -410.515L814.15 169.485Z" stroke="white" stroke-width="2"/>
    <path opacity="0.4" d="M774.15 169.485L1394.15 789.485L2014.15 169.485L1394.15 -450.515L774.15 169.485Z" stroke="white" stroke-width="2"/>
    <path opacity="0.4" d="M734.15 169.485L1394.15 829.485L2054.15 169.485L1394.15 -490.515L734.15 169.485Z" stroke="white" stroke-width="2"/>
    <path opacity="0.4" d="M694.15 169.485L1394.15 869.485L2094.15 169.485L1394.15 -530.515L694.15 169.485Z" stroke="white" stroke-width="2"/>
    <path opacity="0.4" d="M654.15 169.485L1394.15 909.485L2134.15 169.485L1394.15 -570.515L654.15 169.485Z" stroke="white" stroke-width="2"/>
    <path opacity="0.4" d="M614.15 169.485L1394.15 949.485L2174.15 169.485L1394.15 -610.515L614.15 169.485Z" stroke="white" stroke-width="2"/>
    <path opacity="0.4" d="M574.15 169.485L1394.15 989.485L2214.15 169.485L1394.15 -650.515L574.15 169.485Z" stroke="white" stroke-width="2"/>
    <path opacity="0.4" d="M534.15 169.485L1394.15 1029.49L2254.15 169.485L1394.15 -690.515L534.15 169.485Z" stroke="white" stroke-width="2"/>
    <path opacity="0.4" d="M494.15 169.485L1394.15 1069.49L2294.15 169.485L1394.15 -730.515L494.15 169.485Z" stroke="white" stroke-width="2"/>
    <path opacity="0.4" d="M454.15 169.485L1394.15 1109.49L2334.15 169.485L1394.15 -770.515L454.15 169.485Z" stroke="white" stroke-width="2"/>
    <path opacity="0.4" d="M414.15 169.485L1394.15 1149.49L2374.15 169.485L1394.15 -810.515L414.15 169.485Z" stroke="white" stroke-width="2"/>
    <path opacity="0.4" d="M374.15 169.485L1394.15 1189.49L2414.15 169.485L1394.15 -850.515L374.15 169.485Z" stroke="white" stroke-width="2"/>
    <path opacity="0.4" d="M334.15 169.485L1394.15 1229.49L2454.15 169.485L1394.15 -890.515L334.15 169.485Z" stroke="white" stroke-width="2"/>
    <path opacity="0.4" d="M294.15 169.485L1394.15 1269.49L2494.15 169.485L1394.15 -930.515L294.15 169.485Z" stroke="white" stroke-width="2"/>
    <path opacity="0.4" d="M254.15 169.485L1394.15 1309.49L2534.15 169.485L1394.15 -970.515L254.15 169.485Z" stroke="white" stroke-width="2"/>
    <path opacity="0.4" d="M214.15 169.485L1394.15 1349.49L2574.15 169.485L1394.15 -1010.52L214.15 169.485Z" stroke="white" stroke-width="2"/>
    <path opacity="0.4" d="M174.15 169.485L1394.15 1389.49L2614.15 169.485L1394.15 -1050.52L174.15 169.485Z" stroke="white" stroke-width="2"/>
    <path opacity="0.4" d="M134.15 169.485L1394.15 1429.49L2654.15 169.485L1394.15 -1090.52L134.15 169.485Z" stroke="white" stroke-width="2"/>
    <path opacity="0.4" d="M94.15 169.485L1394.15 1469.49L2694.15 169.485L1394.15 -1130.52L94.15 169.485Z" stroke="white" stroke-width="2"/>
    <path opacity="0.4" d="M54.15 169.485L1394.15 1509.49L2734.15 169.485L1394.15 -1170.52L54.15 169.485Z" stroke="white" stroke-width="2"/>
    <path opacity="0.4" d="M14.15 169.485L1394.15 1549.49L2774.15 169.485L1394.15 -1210.52L14.15 169.485Z" stroke="white" stroke-width="2"/>
    <path opacity="0.4" d="M-25.85 169.485L1394.15 1589.49L2814.15 169.485L1394.15 -1250.52L-25.85 169.485Z" stroke="white" stroke-width="2"/>
    <path opacity="0.4" d="M-65.85 169.485L1394.15 1629.49L2854.15 169.485L1394.15 -1290.52L-65.85 169.485Z" stroke="white" stroke-width="2"/>
    <path opacity="0.4" d="M-105.85 169.485L1394.15 1669.49L2894.15 169.485L1394.15 -1330.52L-105.85 169.485Z" stroke="white" stroke-width="2"/>
    <path opacity="0.4" d="M-145.85 169.485L1394.15 1709.49L2934.15 169.485L1394.15 -1370.52L-145.85 169.485Z" stroke="white" stroke-width="2"/>
    <path opacity="0.4" d="M-185.85 169.485L1394.15 1749.49L2974.15 169.485L1394.15 -1410.52L-185.85 169.485Z" stroke="white" stroke-width="2"/>
    <path opacity="0.4" d="M-225.85 169.485L1394.15 1789.49L3014.15 169.485L1394.15 -1450.52L-225.85 169.485Z" stroke="white" stroke-width="2"/>
  </g>
  <defs>
    <linearGradient id="paint0_linear" x1="720" y1="0" x2="720" y2="800" gradientUnits="userSpaceOnUse">
      <stop stop-color="white" stop-opacity="0"/>
      <stop offset="1" stop-color="white" stop-opacity="0.1"/>
    </linearGradient>
  </defs>
</svg>
